<svg xmlns="http://www.w3.org/2000/svg" width="500" height="500" viewBox="0 0 500 500" version="1.1"><path d="M 363.880 160.750 C 362.378 164.610, 363.387 175.146, 365.626 178.980 C 366.657 180.746, 369.169 183.047, 371.210 184.095 C 374.456 185.761, 375.182 186.844, 377.021 192.750 C 378.177 196.462, 379.383 201.637, 379.701 204.250 L 380.279 209 375.262 209 C 372.280 209, 369.792 209.545, 369.129 210.345 C 368.289 211.356, 369.095 216.535, 372.378 231.232 C 374.779 241.981, 377.052 251.276, 377.431 251.888 C 377.809 252.499, 379.441 253, 381.059 253 L 384 253 384 260.551 L 384 268.102 377.806 276.092 L 371.612 284.083 365.085 283.791 L 358.557 283.500 356.352 276 C 353.562 266.505, 353.532 265.283, 356.069 264.478 C 360.213 263.163, 361.992 258.293, 361.996 248.250 L 362 239 357 239 L 352 239 352 245.809 C 352 256.962, 356.331 256.064, 304 255.762 L 258.500 255.500 258 247.500 L 257.500 239.500 252.250 239.198 L 247 238.895 247 247.480 C 247 257.205, 248.435 261.693, 252.490 264.647 L 255.226 266.640 252.834 275.070 L 250.441 283.500 243.221 283.794 L 236 284.088 236 234.544 L 236 185 242.878 185 C 252.921 185, 253.100 184.437, 247.202 171.345 L 242.317 160.500 232.454 160.500 L 222.592 160.500 217.753 171.345 C 211.909 184.441, 212.088 185, 222.122 185 L 229 185 229 234.494 L 229 283.989 145.750 284.244 L 62.500 284.500 62.500 287 L 62.500 289.500 148 290.107 C 271.091 290.982, 404.697 291.105, 411.905 290.352 C 417.855 289.730, 418.092 289.600, 417.802 287.102 C 417.514 284.621, 417.164 284.477, 410.267 284 C 404.526 283.603, 402.744 283.087, 401.627 281.500 C 400.853 280.400, 398.145 276.834, 395.610 273.575 C 391.089 267.765, 391 267.509, 391 260.325 L 391 253 393.878 253 C 395.460 253, 397.203 252.438, 397.750 251.750 C 399.195 249.935, 407.308 212.246, 406.633 210.486 C 406.209 209.381, 404.387 209, 399.531 209 C 393.004 209, 393 208.998, 393 206.125 C 393 199.930, 394.185 197.088, 397.610 195.067 C 404.073 191.255, 407.246 182.342, 405.048 174.179 C 404.429 171.881, 403.583 170, 403.167 170 C 401.012 170, 391.266 176.949, 389.284 179.898 C 386.920 183.414, 386.137 190.715, 387.926 192.550 C 388.495 193.134, 388.335 195.621, 387.511 199 C 386.773 202.025, 386.132 203.763, 386.085 202.862 C 386.038 201.961, 384.839 197.236, 383.420 192.362 C 381.335 185.197, 381.034 182.865, 381.847 180.185 C 384.044 172.944, 378.785 162.587, 371.282 159.377 C 366.610 157.378, 365.082 157.661, 363.880 160.750 M 265.250 215.650 C 264.363 216.017, 264 219.192, 264 226.583 L 264 237 282.534 237 L 301.068 237 300.784 226.250 L 300.500 215.500 283.500 215.317 C 274.150 215.216, 265.938 215.366, 265.250 215.650 M 309.250 215.662 C 308.362 216.020, 308 219.186, 308 226.583 L 308 237 326.500 237 L 345 237 345 226.607 C 345 218.052, 344.720 216.107, 343.418 215.607 C 341.537 214.885, 311.054 214.934, 309.250 215.662 M 264 246.500 L 264 249 282.500 249 L 301 249 301 246.500 L 301 244 282.500 244 L 264 244 264 246.500 M 308 246.500 L 308 249 326.500 249 L 345 249 345 246.500 L 345 244 326.500 244 L 308 244 308 246.500 M 260.200 273.479 C 258.990 277.592, 258 281.642, 258 282.479 C 258 283.818, 263.529 284, 304.333 284 C 329.817 284, 350.915 283.751, 351.220 283.447 C 351.524 283.143, 351.136 280.781, 350.358 278.197 C 349.580 275.614, 348.489 271.813, 347.933 269.750 L 346.923 266 304.662 266 L 262.401 266 260.200 273.479 M 391 281.309 C 391 283.034, 391.538 284, 392.500 284 C 394.366 284, 394.358 283.057, 392.468 280.559 C 391.060 278.697, 391 278.728, 391 281.309 M 382.200 281.200 C 380.567 282.833, 380.692 284, 382.500 284 C 383.333 284, 384 283.111, 384 282 C 384 279.669, 383.814 279.586, 382.200 281.200 M 207.139 301.332 C 205.431 303.390, 205.996 336.168, 207.750 336.751 C 208.714 337.071, 209.010 333.540, 209.044 321.333 L 209.089 305.500 213.945 317 C 216.624 323.345, 219.460 328.634, 220.271 328.798 C 221.299 329.007, 223.059 325.846, 226.121 318.298 L 230.500 307.500 231 321.919 C 231.356 332.197, 231.859 336.457, 232.750 336.752 C 233.719 337.074, 234 333.104, 234 319.083 C 234 301.997, 233.895 301, 232.104 301 C 230.617 301, 229.196 303.533, 225.511 312.750 C 222.928 319.212, 220.683 324.636, 220.523 324.801 C 220.362 324.967, 218.104 320.017, 215.505 313.801 C 210.132 300.953, 208.935 299.169, 207.139 301.332 M 131.227 318.668 C 131.429 331.714, 131.827 336.444, 132.750 336.751 C 133.719 337.073, 134 333.105, 134 319.083 C 134 303.554, 133.785 301, 132.477 301 C 131.160 301, 130.991 303.391, 131.227 318.668 M 151.227 318.668 C 151.429 331.714, 151.827 336.444, 152.750 336.751 C 153.719 337.073, 154 333.105, 154 319.083 C 154 303.554, 153.785 301, 152.477 301 C 151.160 301, 150.991 303.391, 151.227 318.668 M 173.110 302.396 C 169.003 304.672, 168.074 307.719, 168.035 319.027 C 167.997 330.590, 168.802 332.812, 174.011 335.506 C 177.669 337.397, 182.088 337.408, 186.568 335.536 C 191.341 333.542, 193 329.218, 192.998 318.782 C 192.997 309.442, 191.146 304.350, 187 302.279 C 183.741 300.650, 176.144 300.714, 173.110 302.396 M 248.667 301.667 C 247.833 302.500, 247.779 333.261, 248.607 335.418 C 249.107 336.721, 251.060 337, 259.690 337 C 267.626 337, 270.066 336.697, 269.752 335.750 C 269.471 334.900, 266.401 334.408, 260.169 334.212 L 251 333.925 251 318.462 L 251 303 260.500 303 C 266.167 303, 270 302.596, 270 302 C 270 300.886, 249.764 300.570, 248.667 301.667 M 282 318.897 C 282 330, 282.377 337, 282.976 337 C 283.560 337, 284.062 330.286, 284.226 320.250 L 284.500 303.500 290.752 303.597 C 298.229 303.713, 301 305.602, 301 310.582 C 301 314.529, 297.193 318, 292.865 318 C 291.117 318, 290 318.530, 290 319.359 C 290 321.340, 302.159 337, 303.697 337 C 305.730 337, 305.368 336.289, 299.500 328.736 C 296.475 324.843, 294 321.285, 294 320.829 C 294 320.373, 294.875 320, 295.944 320 C 297.014 320, 299.151 318.914, 300.694 317.587 C 303.005 315.599, 303.500 314.369, 303.500 310.614 C 303.500 303.404, 300.997 301.585, 290.473 301.147 L 282 300.795 282 318.897 M 314.227 318.750 L 314.500 336.500 324.750 336.785 C 333.422 337.026, 335 336.834, 335 335.535 C 335 334.269, 333.424 334, 326 334 L 317 334 317 317.500 C 317 303.389, 316.779 301, 315.477 301 C 314.160 301, 313.991 303.400, 314.227 318.750 M 352.465 317.750 C 349.278 326.962, 346.471 335.063, 346.228 335.750 C 345.985 336.438, 346.407 337, 347.165 337 C 348.035 337, 350.310 331.986, 353.325 323.426 C 355.954 315.961, 358.578 308.648, 359.155 307.176 C 360.116 304.725, 360.663 305.804, 365.658 320 C 368.658 328.525, 371.529 335.920, 372.039 336.433 C 374.719 339.130, 373.647 334.397, 367.987 318.542 C 363.146 304.982, 361.331 301, 359.992 301 C 358.649 301, 356.959 304.761, 352.465 317.750 M 383.618 302.250 C 384.023 302.938, 386.524 306.742, 389.177 310.705 C 391.830 314.668, 394 318.212, 394 318.581 C 394 318.951, 391.684 323.030, 388.853 327.646 C 384.185 335.257, 383.183 338.241, 385.848 336.594 C 386.387 336.261, 388.771 332.841, 391.144 328.994 C 393.518 325.147, 395.694 322.006, 395.980 322.012 C 396.266 322.019, 398.452 325.394, 400.837 329.512 C 404.803 336.358, 407 338.654, 407 335.953 C 407 335.378, 404.975 331.396, 402.500 327.105 C 400.025 322.814, 398 319.016, 398 318.665 C 398 318.315, 400.025 314.366, 402.500 309.892 C 404.975 305.418, 407 301.586, 407 301.378 C 407 301.170, 406.381 301, 405.624 301 C 404.867 301, 402.592 304.150, 400.569 308 C 398.546 311.850, 396.532 315, 396.092 315 C 395.653 315, 393.199 311.850, 390.639 308 C 388.079 304.150, 385.286 301, 384.433 301 C 383.466 301, 383.159 301.471, 383.618 302.250 M 174.786 304.499 C 171.136 306.553, 169.676 311.906, 170.159 321.468 C 170.512 328.462, 170.820 329.449, 173.331 331.608 C 177.250 334.979, 184.142 334.949, 187.545 331.545 C 189.824 329.267, 190 328.374, 190 319.101 C 190 310.181, 189.759 308.831, 187.748 306.494 C 184.939 303.227, 178.741 302.273, 174.786 304.499 M 135 318 C 135 318.578, 138.167 319, 142.500 319 C 146.833 319, 150 318.578, 150 318 C 150 317.422, 146.833 317, 142.500 317 C 138.167 317, 135 317.422, 135 318 M 253 318 C 253 318.564, 255.833 319, 259.500 319 C 263.167 319, 266 318.564, 266 318 C 266 317.436, 263.167 317, 259.500 317 C 255.833 317, 253 317.436, 253 318 M 355 322.500 C 355 323.800, 355.953 324.047, 360.013 323.802 C 366.695 323.399, 366.861 321.578, 360.250 321.198 C 355.972 320.951, 355 321.193, 355 322.500" stroke="none" fill="#fc7719" fill-rule="evenodd"/><path d="M 0 250.002 L 0 500.004 250.250 499.752 L 500.500 499.500 500.752 249.750 L 501.004 0 250.502 0 L 0 0 0 250.002 M 0.492 250.500 C 0.492 388, 0.608 444.101, 0.750 375.170 C 0.892 306.238, 0.892 193.738, 0.750 125.170 C 0.608 56.601, 0.492 113, 0.492 250.500 M 363.880 160.750 C 362.378 164.610, 363.387 175.146, 365.626 178.980 C 366.657 180.746, 369.169 183.047, 371.210 184.095 C 374.456 185.761, 375.182 186.844, 377.021 192.750 C 378.177 196.462, 379.383 201.637, 379.701 204.250 L 380.279 209 375.262 209 C 372.280 209, 369.792 209.545, 369.129 210.345 C 368.289 211.356, 369.095 216.535, 372.378 231.232 C 374.779 241.981, 377.052 251.276, 377.431 251.888 C 377.809 252.499, 379.441 253, 381.059 253 L 384 253 384 260.551 L 384 268.102 377.806 276.092 L 371.612 284.083 365.085 283.791 L 358.557 283.500 356.352 276 C 353.562 266.505, 353.532 265.283, 356.069 264.478 C 360.213 263.163, 361.992 258.293, 361.996 248.250 L 362 239 357 239 L 352 239 352 245.809 C 352 256.962, 356.331 256.064, 304 255.762 L 258.500 255.500 258 247.500 L 257.500 239.500 252.250 239.198 L 247 238.895 247 247.480 C 247 257.205, 248.435 261.693, 252.490 264.647 L 255.226 266.640 252.834 275.070 L 250.441 283.500 243.221 283.794 L 236 284.088 236 234.544 L 236 185 242.878 185 C 252.921 185, 253.100 184.437, 247.202 171.345 L 242.317 160.500 232.454 160.500 L 222.592 160.500 217.753 171.345 C 211.909 184.441, 212.088 185, 222.122 185 L 229 185 229 234.494 L 229 283.989 145.750 284.244 L 62.500 284.500 62.500 287 L 62.500 289.500 148 290.107 C 271.091 290.982, 404.697 291.105, 411.905 290.352 C 417.855 289.730, 418.092 289.600, 417.802 287.102 C 417.514 284.621, 417.164 284.477, 410.267 284 C 404.526 283.603, 402.744 283.087, 401.627 281.500 C 400.853 280.400, 398.145 276.834, 395.610 273.575 C 391.089 267.765, 391 267.509, 391 260.325 L 391 253 393.878 253 C 395.460 253, 397.203 252.438, 397.750 251.750 C 399.195 249.935, 407.308 212.246, 406.633 210.486 C 406.209 209.381, 404.387 209, 399.531 209 C 393.004 209, 393 208.998, 393 206.125 C 393 199.930, 394.185 197.088, 397.610 195.067 C 404.073 191.255, 407.246 182.342, 405.048 174.179 C 404.429 171.881, 403.583 170, 403.167 170 C 401.012 170, 391.266 176.949, 389.284 179.898 C 386.920 183.414, 386.137 190.715, 387.926 192.550 C 388.495 193.134, 388.335 195.621, 387.511 199 C 386.773 202.025, 386.132 203.763, 386.085 202.862 C 386.038 201.961, 384.839 197.236, 383.420 192.362 C 381.335 185.197, 381.034 182.865, 381.847 180.185 C 384.044 172.944, 378.785 162.587, 371.282 159.377 C 366.610 157.378, 365.082 157.661, 363.880 160.750 M 265.250 215.650 C 264.363 216.017, 264 219.192, 264 226.583 L 264 237 282.534 237 L 301.068 237 300.784 226.250 L 300.500 215.500 283.500 215.317 C 274.150 215.216, 265.938 215.366, 265.250 215.650 M 309.250 215.662 C 308.362 216.020, 308 219.186, 308 226.583 L 308 237 326.500 237 L 345 237 345 226.607 C 345 218.052, 344.720 216.107, 343.418 215.607 C 341.537 214.885, 311.054 214.934, 309.250 215.662 M 264 246.500 L 264 249 282.500 249 L 301 249 301 246.500 L 301 244 282.500 244 L 264 244 264 246.500 M 308 246.500 L 308 249 326.500 249 L 345 249 345 246.500 L 345 244 326.500 244 L 308 244 308 246.500 M 260.200 273.479 C 258.990 277.592, 258 281.642, 258 282.479 C 258 283.818, 263.529 284, 304.333 284 C 329.817 284, 350.915 283.751, 351.220 283.447 C 351.524 283.143, 351.136 280.781, 350.358 278.197 C 349.580 275.614, 348.489 271.813, 347.933 269.750 L 346.923 266 304.662 266 L 262.401 266 260.200 273.479 M 391 281.309 C 391 283.034, 391.538 284, 392.500 284 C 394.366 284, 394.358 283.057, 392.468 280.559 C 391.060 278.697, 391 278.728, 391 281.309 M 382.200 281.200 C 380.567 282.833, 380.692 284, 382.500 284 C 383.333 284, 384 283.111, 384 282 C 384 279.669, 383.814 279.586, 382.200 281.200 M 207.139 301.332 C 205.431 303.390, 205.996 336.168, 207.750 336.751 C 208.714 337.071, 209.010 333.540, 209.044 321.333 L 209.089 305.500 213.945 317 C 216.624 323.345, 219.460 328.634, 220.271 328.798 C 221.299 329.007, 223.059 325.846, 226.121 318.298 L 230.500 307.500 231 321.919 C 231.356 332.197, 231.859 336.457, 232.750 336.752 C 233.719 337.074, 234 333.104, 234 319.083 C 234 301.997, 233.895 301, 232.104 301 C 230.617 301, 229.196 303.533, 225.511 312.750 C 222.928 319.212, 220.683 324.636, 220.523 324.801 C 220.362 324.967, 218.104 320.017, 215.505 313.801 C 210.132 300.953, 208.935 299.169, 207.139 301.332 M 131.227 318.668 C 131.429 331.714, 131.827 336.444, 132.750 336.751 C 133.719 337.073, 134 333.105, 134 319.083 C 134 303.554, 133.785 301, 132.477 301 C 131.160 301, 130.991 303.391, 131.227 318.668 M 151.227 318.668 C 151.429 331.714, 151.827 336.444, 152.750 336.751 C 153.719 337.073, 154 333.105, 154 319.083 C 154 303.554, 153.785 301, 152.477 301 C 151.160 301, 150.991 303.391, 151.227 318.668 M 173.110 302.396 C 169.003 304.672, 168.074 307.719, 168.035 319.027 C 167.997 330.590, 168.802 332.812, 174.011 335.506 C 177.669 337.397, 182.088 337.408, 186.568 335.536 C 191.341 333.542, 193 329.218, 192.998 318.782 C 192.997 309.442, 191.146 304.350, 187 302.279 C 183.741 300.650, 176.144 300.714, 173.110 302.396 M 248.667 301.667 C 247.833 302.500, 247.779 333.261, 248.607 335.418 C 249.107 336.721, 251.060 337, 259.690 337 C 267.626 337, 270.066 336.697, 269.752 335.750 C 269.471 334.900, 266.401 334.408, 260.169 334.212 L 251 333.925 251 318.462 L 251 303 260.500 303 C 266.167 303, 270 302.596, 270 302 C 270 300.886, 249.764 300.570, 248.667 301.667 M 282 318.897 C 282 330, 282.377 337, 282.976 337 C 283.560 337, 284.062 330.286, 284.226 320.250 L 284.500 303.500 290.752 303.597 C 298.229 303.713, 301 305.602, 301 310.582 C 301 314.529, 297.193 318, 292.865 318 C 291.117 318, 290 318.530, 290 319.359 C 290 321.340, 302.159 337, 303.697 337 C 305.730 337, 305.368 336.289, 299.500 328.736 C 296.475 324.843, 294 321.285, 294 320.829 C 294 320.373, 294.875 320, 295.944 320 C 297.014 320, 299.151 318.914, 300.694 317.587 C 303.005 315.599, 303.500 314.369, 303.500 310.614 C 303.500 303.404, 300.997 301.585, 290.473 301.147 L 282 300.795 282 318.897 M 314.227 318.750 L 314.500 336.500 324.750 336.785 C 333.422 337.026, 335 336.834, 335 335.535 C 335 334.269, 333.424 334, 326 334 L 317 334 317 317.500 C 317 303.389, 316.779 301, 315.477 301 C 314.160 301, 313.991 303.400, 314.227 318.750 M 352.465 317.750 C 349.278 326.962, 346.471 335.063, 346.228 335.750 C 345.985 336.438, 346.407 337, 347.165 337 C 348.035 337, 350.310 331.986, 353.325 323.426 C 355.954 315.961, 358.578 308.648, 359.155 307.176 C 360.116 304.725, 360.663 305.804, 365.658 320 C 368.658 328.525, 371.529 335.920, 372.039 336.433 C 374.719 339.130, 373.647 334.397, 367.987 318.542 C 363.146 304.982, 361.331 301, 359.992 301 C 358.649 301, 356.959 304.761, 352.465 317.750 M 383.618 302.250 C 384.023 302.938, 386.524 306.742, 389.177 310.705 C 391.830 314.668, 394 318.212, 394 318.581 C 394 318.951, 391.684 323.030, 388.853 327.646 C 384.185 335.257, 383.183 338.241, 385.848 336.594 C 386.387 336.261, 388.771 332.841, 391.144 328.994 C 393.518 325.147, 395.694 322.006, 395.980 322.012 C 396.266 322.019, 398.452 325.394, 400.837 329.512 C 404.803 336.358, 407 338.654, 407 335.953 C 407 335.378, 404.975 331.396, 402.500 327.105 C 400.025 322.814, 398 319.016, 398 318.665 C 398 318.315, 400.025 314.366, 402.500 309.892 C 404.975 305.418, 407 301.586, 407 301.378 C 407 301.170, 406.381 301, 405.624 301 C 404.867 301, 402.592 304.150, 400.569 308 C 398.546 311.850, 396.532 315, 396.092 315 C 395.653 315, 393.199 311.850, 390.639 308 C 388.079 304.150, 385.286 301, 384.433 301 C 383.466 301, 383.159 301.471, 383.618 302.250 M 174.786 304.499 C 171.136 306.553, 169.676 311.906, 170.159 321.468 C 170.512 328.462, 170.820 329.449, 173.331 331.608 C 177.250 334.979, 184.142 334.949, 187.545 331.545 C 189.824 329.267, 190 328.374, 190 319.101 C 190 310.181, 189.759 308.831, 187.748 306.494 C 184.939 303.227, 178.741 302.273, 174.786 304.499 M 135 318 C 135 318.578, 138.167 319, 142.500 319 C 146.833 319, 150 318.578, 150 318 C 150 317.422, 146.833 317, 142.500 317 C 138.167 317, 135 317.422, 135 318 M 253 318 C 253 318.564, 255.833 319, 259.500 319 C 263.167 319, 266 318.564, 266 318 C 266 317.436, 263.167 317, 259.500 317 C 255.833 317, 253 317.436, 253 318 M 355 322.500 C 355 323.800, 355.953 324.047, 360.013 323.802 C 366.695 323.399, 366.861 321.578, 360.250 321.198 C 355.972 320.951, 355 321.193, 355 322.500" stroke="none" fill="#fcfbfb" fill-rule="evenodd"/></svg>