<svg xmlns="http://www.w3.org/2000/svg" version="1.1" xmlns:xlink="http://www.w3.org/1999/xlink" xmlns:svgjs="http://svgjs.dev/svgjs" width="100%" height="100%" viewBox="0 0 1000 600"><rect width="1000" height="600" x="0" y="0" fill="#22c55e"/><g><circle r="166.66666666666666" cx="380.09630839029944" cy="402.31853855901704" fill="#ffffff" transform="matrix(0.5856730865105113,0,0,0.5856730865105113,0,64.37285118943248)"/><path d="M372.82945766716955 392.51579734568236L372.82945766716955 392.51579734568236Q393.6347649850221 392.51579734568236 411.3042789325561 392.89754610380805L411.3042789325561 392.89754610380805Q420.5480524328864 355.59523888123624 429.3828094066534 341.06151830402075L429.3828094066534 341.06151830402075Q435.2726473891647 332.63577785681707 441.16248537167604 328.9000935808724L441.16248537167604 328.9000935808724Q443.5075134573056 327.31856301149435 445.96161261668533 327.31856301149435Q448.415711776065 327.31856301149435 448.415711776065 334.9808059424466Q448.415711776065 342.6430488733988 447.13412665950005 351.06878932060255Q445.87980931137264 359.5217975362438 443.9165299838689 370.5107082165775L443.9165299838689 370.5107082165775Q437.4268010957314 406.6405013963345 434.1819366516626 428.2365739988761Q430.9370722075939 449.83264660141765 430.9370722075939 469.8471886345812L430.9370722075939 469.8471886345812Q430.9370722075939 475.3552778589668 423.0839548975788 475.3552778589668L423.0839548975788 475.3552778589668Q410.7316557953675 475.3552778589668 406.2052062347338 470.5561506139575Q401.7060244425376 465.72975560051077 401.7060244425376 453.0775110454864Q401.7060244425376 440.3979987220245 406.8050971403599 413.130230284472L406.8050971403599 413.130230284472Q385.2090245378184 412.14859062072014 379.5100609343699 412.14859062072014L379.5100609343699 412.14859062072014L371.4660692452919 412.14859062072014Q369.31191553872526 412.14859062072014 367.1304940637211 412.339464999783L367.1304940637211 412.339464999783Q358.29573708995406 446.096962325473 358.29573708995406 465.72975560051077L358.29573708995406 465.72975560051077Q358.29573708995406 477.31855718647057 335.7180248236606 477.31855718647057L335.7180248236606 477.31855718647057Q330.80982650490114 477.31855718647057 329.9372579148995 472.3012877939609Q329.0646893248978 467.3112861698888 329.0646893248978 456.02243003674204Q329.0646893248978 444.73357390359536 336.12704135022386 415.4752583701015L336.12704135022386 415.4752583701015Q324.15649100613837 417.24766331854244 318.64840178175274 417.24766331854244L318.64840178175274 417.24766331854244Q316.0852315486228 417.24766331854244 316.0852315486228 415.2843839910387L316.0852315486228 415.2843839910387Q316.0852315486228 410.9488088094678 322.4658893630101 405.4679873535198Q328.8465471773974 399.95989812913416 341.2261140480462 396.6332303797527L341.2261140480462 396.6332303797527Q348.47934045243517 371.49234788032936 355.7598346252617 355.4043645021734L355.7598346252617 355.4043645021734Q334.54551078084586 355.7861132602991 324.53823976426406 363.6392305703142L324.53823976426406 363.6392305703142Q321.4024463939455 366.0115264243813 319.43916706644177 367.86573467813486Q317.475887738938 369.71994293188845 316.00342824331017 369.71994293188845Q314.5309687476823 369.71994293188845 313.1403125573671 367.37491484625895Q311.77692413548954 365.02988676062944 311.77692413548954 361.10332810562187L311.77692413548954 361.10332810562187Q311.77692413548954 346.7604819074693 335.936166971161 339.28911335557984L335.936166971161 339.28911335557984Q355.1599437196355 333.3992753730685 380.6825749771847 333.2084009940057L380.6825749771847 333.2084009940057L381.09159150374796 333.2084009940057Q382.4549799256256 333.2084009940057 384.9090790850053 334.78993156338373Q387.36317824438504 336.3441943643242 387.36317824438504 339.889004261206Q387.36317824438504 343.43381415808784 386.08159312782004 347.8511926449713Q384.8000080112551 352.26857113185486 382.64585430468844 354.42272483842146L382.64585430468844 354.42272483842146Q381.47334026187366 363.6392305703142 372.82945766716955 392.51579734568236Z " fill="#22c55e" transform="matrix(0.5856730865105113,0,0,0.5856730865105113,0,64.37285118943248)"/><path d="M692.1779835952573 408.62207238930546L692.1779835952573 408.62207238930546Q692.1779835952573 401.60060838605733 683.8823543095664 401.60060838605733Q675.5867250238756 401.60060838605733 667.5621947344491 414.3693711101108Q659.5647743446493 427.1652437337907 657.6128615715455 440.42198465112017L657.6128615715455 440.42198465112017Q658.0195100659421 444.9222279891093 658.3990486607123 449.4224713270984Q658.7785872554825 453.8956047654611 658.7785872554825 458.2060788060651L658.7785872554825 458.2060788060651Q658.7785872554825 468.5349505637389 651.9468925496194 472.24900681256133L651.9468925496194 472.24900681256133Q648.8292540925788 474.01115028827996 646.009824531429 475.5564145669871Q643.1632850706528 477.1287887453206 639.4763387214568 477.1287887453206Q635.7622824726345 477.1287887453206 632.9157430118582 472.1405672140555Q630.0963134507084 467.17945558241695 630.0963134507084 456.63370462773156L630.0963134507084 456.63370462773156Q630.0963134507084 427.1652437337907 634.379677591686 405.50443393226476L634.379677591686 405.50443393226476Q641.021603000164 371.91526829510497 660.7305000285862 333.6631999221974L660.7305000285862 333.6631999221974Q663.4685998908567 328.40387939466797 668.7550303180126 328.48520909354727Q674.0143508455421 328.5936486920531 677.3217585999678 335.8048819926862Q680.65627625402 343.04322519294584 680.5478366555142 347.9230071257051Q680.4665069566349 352.80278905846444 679.0025723768072 357.38436209533285Q677.5386377969793 361.9659351322013 675.2885161279847 366.35773887168466Q673.0383944589902 370.74954261116807 670.2189648978404 375.3311156480365Q667.3724254370641 379.91268868490494 664.6343255747936 385.1991191120608L664.6343255747936 385.1991191120608L661.7064564151381 399.242047118557Q669.3243382101679 386.55461409338284 682.2015405327271 382.27124995240524L682.2015405327271 382.27124995240524Q686.8915531681014 380.6988757740717 692.5575221900274 380.6988757740717L692.5575221900274 380.6988757740717Q705.8413730069832 380.6988757740717 712.6730677128462 386.66305369188865Q719.5047624187092 392.60012171007907 719.5047624187092 403.44408156065526Q719.5047624187092 414.2880414112315 716.658222957933 425.4031002580721Q713.8387933967831 436.5181591049127 712.5646281143404 441.31661133879265Q711.2904628318977 446.08795367304623 711.2904628318977 449.20559213008687Q711.2904628318977 452.35034048675396 713.4321449023865 452.35034048675396L713.4321449023865 452.35034048675396Q716.3600140620422 452.35034048675396 720.6704881026462 448.6362842379316Q724.9538522436237 444.9222279891093 729.2643262842279 440.5304242496259Q733.5476904252054 436.1386205101426 737.1533070755221 432.4245642613202Q740.7589237258386 428.7105080124978 742.1415286067871 428.7105080124978L742.1415286067871 428.7105080124978Q744.8796284690576 428.7105080124978 744.8796284690576 435.3524334209758L744.8796284690576 435.3524334209758Q744.8796284690576 449.0158228327018 731.4060083547166 461.70325585787594L731.4060083547166 461.70325585787594Q708.7692421666388 474.9871066748318 702.5068553529311 474.9871066748318L702.5068553529311 474.9871066748318Q701.9375474607757 474.9871066748318 701.7206682637643 474.79733737744675L701.7206682637643 474.79733737744675Q686.1053660789346 474.79733737744675 686.1053660789346 449.80200992186855L686.1053660789346 449.80200992186855Q686.1053660789346 439.0664896697981 688.165718450544 430.09311289344635Q690.2260708221535 421.1197361170945 691.2020272087053 416.99903137387554Q692.1779835952573 412.90543653028305 692.1779835952573 408.62207238930546ZM813.955652717228 457.60966101428346L813.955652717228 457.60966101428346Q798.5572297294096 475.7732937639986 776.977749626763 475.7732937639986Q755.3982695241165 475.7732937639986 744.662749272046 464.7395646160373Q733.9272290199757 453.705835468076 734.1441082169871 437.30434619407947L734.1441082169871 437.30434619407947Q733.9272290199757 414.07116221421995 748.783454015265 397.2901343454533Q763.6125691109279 380.5091064766866 787.6048302803277 380.5091064766866L787.6048302803277 380.5091064766866Q798.5572297294096 380.5091064766866 805.1720452382611 383.24720633895714L805.1720452382611 383.24720633895714Q816.6937525794984 387.9372189743313 816.6937525794984 392.03081381792384L816.6937525794984 392.03081381792384Q816.6937525794984 395.1484522749645 800.5904722013928 395.2568918734703Q784.4871918232872 395.3382215723496 773.6703418723374 406.37195072031085Q762.8263820217611 417.40567986827216 762.8263820217611 434.18670773703883L762.8263820217611 434.18670773703883Q762.8263820217611 442.9703152160056 768.0043728504114 448.93449313382246Q773.1823636790615 454.87156115201293 782.6437186486893 454.87156115201293Q792.1050736183169 454.87156115201293 798.3403505323982 450.9677356058055L798.3403505323982 450.9677356058055Q784.4871918232872 441.6148202346835 784.4871918232872 423.83072607973855L784.4871918232872 423.83072607973855Q784.2974225259021 414.4778107086166 791.2375568302708 406.751489315081Q798.1505812350132 399.0522778211719 808.9945410855893 398.94383822266616Q819.811391036539 398.86250852378686 824.5014036719134 404.9080161404831Q829.1914163072876 410.9535237571793 829.1914163072876 420.41487872680705Q829.1914163072876 429.90334359606123 824.6911729692985 440.42198465112017L824.6911729692985 440.42198465112017L825.8840085528617 440.42198465112017Q834.4507368348171 440.23221535373506 840.7131236485249 434.37647703442394L840.7131236485249 434.37647703442394Q843.0445750163987 432.04502566655003 844.6982788936115 430.2828821908314Q846.3790926704509 428.52073871511277 848.1141262465429 428.52073871511277L848.1141262465429 428.52073871511277Q850.8522261088134 428.52073871511277 850.8522261088134 434.9728948262056L850.8522261088134 434.9728948262056Q850.8522261088134 446.87414076221296 843.8307621055654 452.8383186800299Q836.8092981023173 458.77538669822036 828.3238995192415 458.77538669822036Q819.811391036539 458.77538669822036 813.955652717228 457.60966101428346ZM812.2206191411357 434.9728948262056L812.2206191411357 434.9728948262056Q815.5280268955615 427.9514308229575 815.5280268955615 421.3095054144796Q815.5280268955615 414.6675800060017 811.2446627545838 414.6675800060017L811.2446627545838 414.6675800060017Q809.4825192788652 414.6675800060017 808.3167935949283 417.2159105708871Q807.1239580113651 419.737131236146 807.1239580113651 422.0956925036464L807.1239580113651 422.0956925036464Q807.1239580113651 429.90334359606123 812.2206191411357 434.9728948262056ZM948.0683261692292 414.85734930338674L948.0683261692292 414.85734930338674Q948.0683261692292 408.43230309192035 940.6402136715845 408.43230309192035L940.6402136715845 408.43230309192035Q935.57066244144 408.43230309192035 929.3353855273589 418.27319665631825Q923.0729987136511 428.1412001203426 920.3348988513804 439.44602826456827L920.3348988513804 439.44602826456827L920.3348988513804 439.8526767589649Q920.3348988513804 446.49460216744285 922.3952512229899 453.5160661706909Q924.4556035945994 460.537530173939 924.4556035945994 463.27563003620946L924.4556035945994 463.27563003620946Q924.4556035945994 469.9175554446874 907.8643450232179 476.3426016561538L907.8643450232179 476.3426016561538Q905.3160144583325 477.3185580427057 903.3641016852288 477.3185580427057L903.3641016852288 477.3185580427057Q898.4843197524696 477.3185580427057 896.6408465778715 472.24900681256133Q894.7702635036472 467.17945558241695 894.7702635036472 458.4771778023295Q894.7702635036472 449.80200992186855 895.2582416969232 442.10279842795944Q895.7462198901991 434.37647703442394 896.234198083475 427.84299122445174Q896.7221762767509 421.3095054144796 897.2101544700269 416.3212838832145Q897.6981326633028 411.36017225157593 897.6981326633028 408.21542389490884L897.6981326633028 408.21542389490884Q897.6981326633028 401.60060838605733 891.6526250466064 401.60060838605733Q885.6071174299103 401.60060838605733 877.6096970401103 415.7519759910593Q869.5851667506839 429.90334359606123 869.5851667506839 438.198972881752Q869.5851667506839 446.49460216744285 871.6455191222934 453.5160661706909Q873.7058714939029 460.537530173939 873.7058714939029 463.27563003620946L873.7058714939029 463.27563003620946Q873.7058714939029 469.9175554446874 857.1146129225214 476.3426016561538L857.1146129225214 476.3426016561538Q854.5662823576359 477.3185580427057 852.614369584532 477.3185580427057L852.614369584532 477.3185580427057Q847.7345876517728 477.3185580427057 845.8911144771749 472.24900681256133Q844.0205314029505 467.17945558241695 844.0205314029505 456.63370462773156L844.0205314029505 456.63370462773156Q844.0205314029505 428.9273872095094 846.1622134734392 416.61949277910537L846.1622134734392 416.61949277910537Q849.0900826330948 398.45586002939024 859.4460642903952 382.27124995240524L859.4460642903952 382.27124995240524Q862.9703512418324 376.7950502278643 867.0639460854248 376.7950502278643L867.0639460854248 376.7950502278643Q873.4889922968913 376.7950502278643 878.9651920214322 387.3408011825496L878.9651920214322 387.3408011825496Q880.5375661997658 390.0789010448201 881.2966433893063 392.410352412694L881.2966433893063 392.410352412694Q890.6766686600546 380.6988757740717 903.3641016852288 380.6988757740717L903.3641016852288 380.6988757740717Q911.7681705694253 380.6988757740717 918.3829860782768 386.25640519749203Q925.0249114867548 391.84104452053873 925.0249114867548 400.21800350510887L925.0249114867548 400.21800350510887L925.0249114867548 402.35968557559767Q936.9261574227622 387.53057047993474 954.1138337859255 387.53057047993474L954.1138337859255 387.53057047993474Q964.6595847406107 387.53057047993474 970.1086745655253 393.0067702044757Q975.5848742900663 398.45586002939024 975.5848742900663 406.4803903188166Q975.5848742900663 414.4778107086166 974.4191486061294 420.90285692008297Q973.2534229221925 427.3550130311758 971.7894883423647 433.0209820531019Q970.325553762537 438.68695107502793 969.1327181789735 443.0787548145113Q967.9669924950366 447.4705585539947 967.9669924950366 449.9104495203743Q967.9669924950366 452.35034048675396 969.53936667337 452.35034048675396L969.53936667337 452.35034048675396Q972.4672358330257 452.35034048675396 976.7505999740032 448.6362842379316Q981.0610740146072 444.9222279891093 985.344438155585 440.5304242496259Q989.6278022965624 436.1386205101426 993.2605288465055 432.4245642613202Q996.866145496822 428.7105080124978 998.2216404781442 428.7105080124978L998.2216404781442 428.7105080124978Q1000.9597403404147 428.7105080124978 1000.9597403404147 435.3524334209758L1000.9597403404147 435.3524334209758Q1000.9597403404147 449.0158228327018 987.1879113301828 461.89302515526106Q973.4431922195776 474.79733737744675 957.8278900347478 474.79733737744675L957.8278900347478 474.79733737744675Q943.7578521286251 474.79733737744675 943.7578521286251 449.20559213008687L943.7578521286251 449.20559213008687Q943.7578521286251 442.7805459186205 945.9266440987404 431.44860787476836Q948.0683261692292 420.14377973054263 948.0683261692292 414.85734930338674ZM1036.690588048063 452.9196483789092L1036.690588048063 452.9196483789092Q1051.8992417384966 452.9196483789092 1066.1590489420041 440.82863314551673L1066.1590489420041 440.82863314551673Q1071.4183694695334 436.3283898075276 1074.7528871235854 432.53300385982595Q1078.0602948780115 428.7105080124978 1079.82243835373 428.7105080124978L1079.82243835373 428.7105080124978Q1082.5605382160006 428.7105080124978 1082.5605382160006 434.18670773703883Q1082.5605382160006 439.66290746157983 1079.632669056345 446.38616256893704Q1076.7047998966896 453.1094176762943 1069.8731051908262 459.56157378738715L1069.8731051908262 459.56157378738715Q1053.0649674224333 475.366645269602 1023.7862758258776 475.366645269602L1023.7862758258776 475.366645269602Q1000.5802017456446 475.366645269602 992.1761328614479 458.5856174008353L992.1761328614479 458.5856174008353Q989.2482637017923 452.72987908152413 989.2482637017923 441.80458953206863Q989.2482637017923 430.8792999826131 993.53162784277 419.059383745485Q997.8421018833739 407.23946750835694 1004.9720054851279 398.67273922640175Q1012.074799187255 390.0789010448201 1021.4548244580036 385.2804488109402Q1030.834849728752 380.5091064766866 1041.461930382317 380.5091064766866Q1052.0890110358814 380.5091064766866 1057.8634196563135 385.7684270042161Q1063.6107183771187 391.05485743137194 1063.6107183771187 399.4318164159421Q1063.6107183771187 407.83588530013867 1059.4086839350202 413.20364542617386Q1055.2337593925486 418.5714055522091 1048.5918339840705 422.1770222025257Q1041.9499085755924 425.7826388528423 1033.844048587287 428.6291783136185Q1025.7381885989812 431.44860787476836 1017.9305375065663 434.9728948262056L1017.9305375065663 434.9728948262056L1017.9305375065663 439.8526767589649Q1018.147416703578 446.87414076221296 1023.7862758258776 449.80200992186855Q1029.4522448478037 452.72987908152413 1036.690588048063 452.9196483789092ZM1033.356070394011 397.88655213723496L1033.356070394011 397.88655213723496Q1023.2169679337222 397.88655213723496 1019.3131423875149 421.4992747118647L1019.3131423875149 421.4992747118647Q1023.4067372311073 418.76117484959417 1027.0123538814241 416.61949277910537Q1030.6179705317404 414.4778107086166 1033.356070394011 412.52589793551283L1033.356070394011 412.52589793551283Q1039.2118087133222 408.21542389490884 1039.4015780107075 402.7663340699943L1039.4015780107075 402.7663340699943Q1039.4015780107075 397.88655213723496 1033.356070394011 397.88655213723496ZM1206.2901201110749 428.1412001203426L1206.2901201110749 428.1412001203426Q1209.6246377651273 428.1412001203426 1209.6246377651273 437.1145768966944L1209.6246377651273 437.1145768966944Q1209.6246377651273 441.9943588294537 1205.5310429215347 448.93449313382246Q1201.4103381783157 455.84751753856483 1194.8768523683434 461.62192615899664Q1188.3433665583711 467.369224879802 1180.3459461685716 471.0832811286243Q1172.3485257787715 474.79733737744675 1165.1101825785117 474.79733737744675Q1157.8989492778787 474.79733737744675 1153.805354434286 472.0592375151762Q1149.684649691067 469.3211376529057 1147.3531983231933 464.63112501753153L1147.3531983231933 464.63112501753153Q1144.0457905687676 457.98919960905357 1141.8769985986523 439.36469856568897Q1139.7353165281634 420.7130876226979 1137.5936344576749 413.3120850246796L1137.5936344576749 413.3120850246796Q1132.5240832275304 412.3361286381278 1128.7015873802025 409.29981987996644Q1124.9062014325004 406.2635111218051 1124.9062014325004 401.87170738232174Q1124.9062014325004 397.4799036428384 1128.9184665772136 395.52799086973465Q1132.9036218223005 393.57607809663097 1138.0816126509508 393.57607809663097Q1143.2596034796006 393.57607809663097 1147.3531983231933 396.1244086615163L1147.3531983231933 396.1244086615163Q1152.8293980477342 391.6241653235272 1156.2452454006657 385.4973280079517Q1159.6610927535971 379.34338079274966 1159.6610927535971 368.9060694365701Q1159.6610927535971 358.44164818076405 1152.6125188507226 352.2063712666827Q1145.5910548474744 345.9710943526014 1132.0361050342544 345.9710943526014Q1118.4540453214076 345.9710943526014 1111.2428120207746 348.1127764230902Q1104.0315787201416 350.254458493579 1098.8535878914913 352.80278905846444Q1093.675597062841 355.3240097237234 1089.6633319181278 357.46569179421215Q1085.678176673041 359.63448376432746 1082.1538897216042 359.63448376432746Q1078.6567126697933 359.63448376432746 1078.6567126697933 357.38436209533285Q1078.6567126697933 355.1342404263383 1082.343659018989 350.06468919619397Q1086.0577152678115 344.9951379660496 1093.296058468071 339.89847683627875L1093.296058468071 339.89847683627875Q1111.4325813181595 327.21104381110456 1134.2862267032492 327.31948340961037Q1157.1127621887117 327.4279230081161 1171.941877284375 335.9946512900713L1171.941877284375 335.9946512900713Q1189.3193229449234 346.1608636499865 1189.3193229449234 366.4661784701904L1189.3193229449234 366.4661784701904Q1189.5090922423083 383.24720633895714 1180.5357154659564 394.3622651857977Q1171.5623386896045 405.50443393226476 1158.2784878726488 410.3842158650241L1158.2784878726488 410.3842158650241Q1161.2063570323044 416.8092620764905 1163.076940106529 424.2373745741352Q1164.920413281127 431.6383771721534 1166.6825567568453 437.9007639858612Q1168.4447002325642 444.1360408999425 1170.6677120019322 448.229635743535Q1172.917833670927 452.35034048675396 1176.143911726473 452.35034048675396Q1179.3699897820197 452.35034048675396 1183.9515628188879 448.5278446394259Q1188.5331358557564 444.7324586917242 1193.0333791937455 440.23221535373506Q1197.5065126321083 435.75908191537235 1201.1392391820514 431.9365860680442Q1204.744855832368 428.1412001203426 1206.2901201110749 428.1412001203426ZM1121.3819144810632 357.8723402886088L1121.3819144810632 357.8723402886088Q1123.9302450459486 357.8723402886088 1123.9302450459486 364.5142656970867Q1123.9302450459486 371.1290812059382 1123.144057956782 376.98481952524935L1123.144057956782 376.98481952524935Q1121.3819144810632 388.31675756910147 1118.6709245184193 398.07632143462007L1118.6709245184193 398.07632143462007Q1111.6223506155447 424.61691316890534 1111.6223506155447 429.1171565068945L1111.6223506155447 429.1171565068945L1111.6223506155447 457.7994303116685Q1111.6223506155447 468.34518126635385 1103.6249302257447 472.24900681256133L1103.6249302257447 472.24900681256133Q1099.9108739769226 474.01115028827996 1096.4950266239907 475.5564145669871Q1093.0791792710597 477.1287887453206 1088.7958151300818 477.1287887453206L1088.7958151300818 477.1287887453206Q1080.608625442897 477.1287887453206 1080.608625442897 458.28740850494444Q1080.608625442897 439.44602826456827 1089.3922329218635 410.7637544597942Q1098.17584040083 382.0814806550202 1107.7185250693374 367.0354863623457L1107.7185250693374 367.0354863623457Q1109.670437842441 364.1076172026901 1113.3844940912636 360.98997874564947Q1117.0985503400857 357.8723402886088 1121.3819144810632 357.8723402886088ZM1243.3764628000458 474.79733737744675L1243.3764628000458 474.79733737744675Q1215.4803760844384 474.9871066748318 1205.314163724523 453.8956047654611L1205.314163724523 453.8956047654611Q1201.8169866727121 446.49460216744285 1201.8169866727121 435.2711037220964Q1201.8169866727121 424.04760527675006 1203.7688994458163 411.36017225157593L1203.7688994458163 411.36017225157593Q1207.6727249920236 385.9853062012276 1218.787783838864 364.5142656970867L1218.787783838864 364.5142656970867Q1224.4537528607902 353.5618662480048 1231.4752168640384 345.7542151555899L1231.4752168640384 345.7542151555899Q1246.900749751483 328.5936486920531 1265.8234596907387 328.78341798943814L1265.8234596907387 328.78341798943814Q1274.2275285749351 328.78341798943814 1278.9988709091886 333.3649910263066Q1283.7973231430683 337.94656406317506 1283.7973231430683 346.54040224475665Q1283.7973231430683 355.1342404263383 1278.7277719129243 363.8094083067993Q1273.6311107831534 372.5116860868867 1265.7421299918592 381.7832717591293Q1257.8260393009386 391.05485743137194 1248.256244732805 401.1939598916607Q1238.7135600642978 411.36017225157593 1229.5233040909343 423.26141818758333L1229.5233040909343 423.26141818758333L1229.5233040909343 431.0690692799982Q1229.5233040909343 441.9943588294537 1234.2133167263087 447.0639100595981Q1238.903329361683 452.13346128974246 1245.1386062757642 452.13346128974246L1245.1386062757642 452.13346128974246Q1261.9196341445308 452.13346128974246 1274.8239463667169 435.54220271836084L1274.8239463667169 435.54220271836084Q1280.0832668942462 428.7105080124978 1282.8213667565165 428.7105080124978L1282.8213667565165 428.7105080124978Q1285.5594666187872 428.7105080124978 1285.5594666187872 435.3524334209758Q1285.5594666187872 441.9943588294537 1281.926740068844 448.93449313382246Q1278.3211234185273 455.84751753856483 1272.4653850992163 461.62192615899664Q1266.6096467799052 467.369224879802 1258.9917649848753 471.0832811286243Q1251.4009930894722 474.79733737744675 1243.3764628000458 474.79733737744675ZM1253.9222137547313 369.9633555220013Q1258.0158085983235 364.8938042918569 1260.374369865824 360.80020944826435Q1262.7058212336979 356.7066146046718 1262.7058212336979 352.3148108651885Q1262.7058212336979 347.9230071257051 1259.588182776657 347.9230071257051L1259.588182776657 347.9230071257051Q1252.7564880707941 347.9230071257051 1244.4608587851035 361.9659351322013Q1236.1652294994124 376.0088631386975 1232.0716346558197 398.86250852378686L1232.0716346558197 398.86250852378686Q1238.7135600642978 388.69629616387164 1244.2710894877182 381.8646014580086Q1249.8286189111386 375.03290675214566 1253.9222137547313 369.9633555220013ZM1393.8906255260436 428.1412001203426L1393.8906255260436 428.1412001203426Q1397.387802577854 428.1412001203426 1397.387802577854 437.1145768966944L1397.387802577854 437.1145768966944Q1397.387802577854 441.9943588294537 1393.2942077342618 448.93449313382246Q1389.2006128906692 455.84751753856483 1382.667127080697 461.62192615899664Q1376.1065313710988 467.369224879802 1368.1091109812987 471.0832811286243Q1360.1116905914987 474.79733737744675 1352.4938087964688 474.79733737744675L1352.4938087964688 474.79733737744675Q1342.164937038795 474.79733737744675 1338.6406500873577 456.63370462773156L1338.6406500873577 456.63370462773156Q1333.5710988572132 465.0377735119281 1325.356799270402 470.40553363796334Q1317.1696095832167 475.7732937639986 1303.397780572985 475.7732937639986Q1289.6530614623798 475.7732937639986 1281.2489925781833 467.17945558241695Q1272.8720335936132 458.5856174008353 1273.061802890998 446.2777229704313L1273.061802890998 446.2777229704313Q1273.061802890998 413.0952058276681 1295.1021512872944 393.9827265910276L1295.1021512872944 393.9827265910276Q1304.4821765580427 385.9853062012276 1312.5880365463486 383.4369756363422Q1320.693896534654 380.8886450714568 1329.6672733110058 380.8886450714568Q1338.6406500873577 380.8886450714568 1344.306619109284 384.0333934281239L1344.306619109284 384.0333934281239Q1347.0447189715542 378.3674244061978 1350.541896023365 378.3674244061978L1350.541896023365 378.3674244061978Q1357.373590729228 378.3674244061978 1363.5275379444302 384.3044924243883Q1369.6814851596323 390.2686703422052 1369.6814851596323 395.52799086973465L1369.6814851596323 395.52799086973465Q1366.9433852973616 401.9801469808275 1361.6840647698323 410.9535237571793L1361.6840647698323 410.9535237571793Q1360.1116905914987 419.9269005335311 1360.1116905914987 436.1386205101426Q1360.1116905914987 452.35034048675396 1364.205285435091 452.35034048675396L1364.205285435091 452.35034048675396Q1369.2748366652354 452.35034048675396 1388.7939643962727 432.04502566655003L1388.7939643962727 432.04502566655003Q1392.31825134771 428.1412001203426 1393.8906255260436 428.1412001203426ZM1301.744076695772 439.8526767589649L1301.744076695772 439.8526767589649Q1301.744076695772 454.87156115201293 1312.8862454422392 454.87156115201293L1312.8862454422392 454.87156115201293Q1324.7874913782466 454.6817918546279 1332.5951424706614 442.1841281268388L1332.5951424706614 442.1841281268388Q1335.333242332932 437.9007639858612 1337.0682759090241 431.6383771721534L1337.0682759090241 431.6383771721534Q1337.0682759090241 409.78779807324236 1340.9721014552315 394.17249588841264L1340.9721014552315 394.17249588841264Q1325.1670299730167 397.2901343454533 1313.4555533343946 409.4082594784722Q1301.744076695772 421.4992747118647 1301.744076695772 439.8526767589649ZM1427.0731426688067 453.705835468076Q1421.4071736468804 462.67921224442784 1416.6087214130007 468.8331594596298Q1411.8373790787473 474.9871066748318 1408.9095099190913 474.9871066748318L1408.9095099190913 474.9871066748318Q1403.2435408971655 474.9871066748318 1398.7704074588028 472.4387761099464Q1394.2701641208137 469.9175554446874 1394.4599334181985 467.17945558241695L1394.4599334181985 467.17945558241695Q1394.4599334181985 466.9896862850319 1396.6016154886875 464.4413557201465L1396.6016154886875 464.4413557201465Q1409.0992792164766 449.4224713270984 1421.000525152484 433.9969384396537L1421.000525152484 433.9969384396537Q1416.9069303088913 418.76117484959417 1413.4097532570804 414.4778107086166L1413.4097532570804 414.4778107086166Q1411.8373790787473 412.52589793551283 1409.8854663056431 412.71566723289794L1409.8854663056431 412.71566723289794Q1402.4573538079985 412.71566723289794 1399.1499460535729 408.62207238930546Q1395.8425382991472 404.5284775457129 1395.8425382991472 400.4077728024939L1395.8425382991472 400.4077728024939Q1395.8425382991472 393.57607809663097 1401.4000677225672 385.7684270042161Q1406.9575971459876 377.9607759118012 1413.8977314503568 377.9607759118012Q1420.8107558550987 377.9607759118012 1428.0490990553585 385.4973280079517Q1435.2603323559915 393.0067702044757 1440.9263013779178 405.28755473525325L1440.9263013779178 405.28755473525325L1441.4956092700731 407.23946750835694Q1444.0439398349586 404.1218290513163 1446.971808994614 400.81442129689054L1446.971808994614 400.81442129689054Q1457.5175599492995 387.7203397773198 1459.4694727224032 384.0333934281239Q1461.4213854955065 380.31933717930156 1463.7528368633807 380.31933717930156L1463.7528368633807 380.31933717930156Q1468.8223880935248 380.31933717930156 1473.919049223296 382.46101924979035Q1478.98860045344 384.60270132027915 1478.8801608549343 388.31675756910147Q1478.7988311560553 392.03081381792384 1476.5487094870605 394.66047408168856Q1474.2985878180662 397.2901343454533 1470.2049929744735 400.8957509957699Q1466.1113981308808 404.5284775457129 1460.2556598115698 409.97756737062747Q1454.3999214922587 415.4537670951685 1447.161578291999 424.61691316890534L1447.161578291999 424.61691316890534Q1452.2311295221434 439.2562589671832 1454.183042295247 443.3498538107757L1454.183042295247 443.3498538107757Q1458.6832856332362 452.35034048675396 1462.5871111794436 452.35034048675396L1462.5871111794436 452.35034048675396Q1465.514980339099 452.35034048675396 1469.798344480077 448.6362842379316Q1474.1088185206809 444.9222279891093 1478.3921826616584 440.5304242496259Q1482.7026567022626 436.1386205101426 1486.308273352579 432.4245642613202Q1489.9138900028956 428.7105080124978 1491.2693849842176 428.7105080124978L1491.2693849842176 428.7105080124978Q1494.0074848464883 428.7105080124978 1494.0074848464883 435.3524334209758L1494.0074848464883 435.3524334209758Q1494.0074848464883 449.0158228327018 1480.262765735883 461.89302515526106Q1466.490936725651 474.79733737744675 1450.8756345408215 474.79733737744675L1450.8756345408215 474.79733737744675Q1443.4475220431768 474.79733737744675 1437.7002233223711 468.8331594596298Q1431.9529246015659 462.8689815418129 1427.0731426688067 453.705835468076L1427.0731426688067 453.705835468076Z " fill="#ffffff" transform="matrix(0.5856730865105113,0,0,0.5856730865105113,0,64.37285118943248)"/></g></svg>